<svg xmlns="http://www.w3.org/2000/svg" width="64" height="64" viewBox="0 0 64 64" fill="none">
  <defs>
    <linearGradient id="g" x1="8" y1="8" x2="56" y2="56" gradientUnits="userSpaceOnUse">
      <stop stop-color="#f97316" />
      <stop offset="1" stop-color="#fbbf24" />
    </linearGradient>
  </defs>
  <rect x="4" y="4" width="56" height="56" rx="14" fill="url(#g)" />
  <path d="M25 15v18.5c0 2-1.6 3.5-3.5 3.5s-3.5-1.5-3.5-3.5V15" stroke="#111827" stroke-width="2.5" stroke-linecap="round" />
  <path d="M25 22h-7" stroke="#111827" stroke-width="2.5" stroke-linecap="round" />
  <path d="M39 15c2.8 0 5 2.2 5 5v27c0 1.1-.9 2-2 2s-2-.9-2-2V36h-6v11c0 1.1-.9 2-2 2s-2-.9-2-2V20c0-2.8 2.2-5 5-5h4Z" fill="#fff" stroke="#111827" stroke-width="2.5" stroke-linejoin="round" />
  <path d="M34 20h8" stroke="#111827" stroke-width="2.5" stroke-linecap="round" />
</svg>
